<svg width="35" height="32" viewBox="0 0 35 32" fill="none" xmlns="http://www.w3.org/2000/svg">
<path d="M23.3987 6.85039C23.3987 8.2232 22.9225 9.5535 22.0514 10.6146C21.1803 11.6758 19.9682 12.4021 18.6215 12.6698C17.2748 12.9376 15.877 12.7302 14.6661 12.083C13.4553 11.4358 12.5063 10.3888 11.9809 9.12051C11.4556 7.85218 11.3863 6.44096 11.7849 5.12729C12.1836 3.81362 13.0254 2.67879 14.1671 1.91615C15.3088 1.15351 16.6796 0.810249 18.046 0.944866C19.4124 1.07948 20.6898 1.68365 21.6607 2.65441C22.2118 3.20545 22.6489 3.85962 22.9471 4.57956C23.2453 5.29951 23.3988 6.07114 23.3987 6.85039Z" fill="#2062AF"/>
<path d="M33.2216 9.03406C33.2216 9.776 33.0015 10.5013 32.5893 11.1182C32.177 11.7351 31.591 12.2159 30.9055 12.4998C30.2199 12.7838 29.4655 12.8581 28.7377 12.7133C28.0099 12.5686 27.3414 12.2113 26.8167 11.6867C26.2919 11.162 25.9346 10.4936 25.7899 9.76591C25.6451 9.03822 25.7194 8.28396 26.0034 7.59849C26.2874 6.91302 26.7682 6.32714 27.3852 5.91494C28.0022 5.50273 28.7276 5.28271 29.4697 5.28271C30.4648 5.28271 31.4191 5.67795 32.1227 6.38146C32.8263 7.08498 33.2216 8.03914 33.2216 9.03406Z" fill="#2062AF"/>
<path d="M9.20941 9.03406C9.20941 9.776 8.98934 10.5013 8.57708 11.1182C8.16481 11.7351 7.57887 12.2159 6.8933 12.4998C6.20773 12.7838 5.45332 12.8581 4.72552 12.7133C3.99771 12.5686 3.3292 12.2113 2.80449 11.6867C2.27977 11.162 1.92242 10.4936 1.77765 9.76591C1.63289 9.03822 1.70721 8.28396 1.99118 7.59849C2.27515 6.91302 2.75605 6.32714 3.37305 5.91494C3.99005 5.50273 4.71542 5.28271 5.45748 5.28271C6.45255 5.28271 7.40688 5.67795 8.1105 6.38146C8.81412 7.08498 9.20941 8.03914 9.20941 9.03406Z" fill="#2062AF"/>
<path d="M9.15381 16.1537C7.67734 14.9436 6.3395 15.104 4.6318 15.104C3.40744 15.1018 2.2322 15.5853 1.36389 16.4484C0.495572 17.3114 0.00508957 18.4836 0 19.7077V27.1567C0.00147418 27.6876 0.21357 28.1961 0.589711 28.5708C0.965852 28.9455 1.47531 29.1556 2.00625 29.155C6.78327 29.155 6.20594 29.2415 6.20594 28.9491C6.20594 23.671 5.58053 19.8003 9.1523 16.1543L9.15381 16.1537Z" fill="#2062AF"/>
<path d="M19.0879 15.1316C16.1051 14.8832 13.5124 15.1347 11.2765 16.9802C7.53214 19.9772 8.25418 24.0123 8.25418 28.9489C8.25511 29.5822 8.50713 30.1893 8.95501 30.6371C9.40288 31.0849 10.0101 31.3369 10.6434 31.3378C25.0429 31.3378 25.6162 31.8023 26.4698 29.9117C26.7496 29.2722 26.6722 29.4756 26.6722 23.3592C26.6722 18.5025 22.4649 15.1321 19.0874 15.1321L19.0879 15.1316Z" fill="#2062AF"/>
<path d="M30.2974 15.1042C28.5806 15.1042 27.2503 14.9459 25.7754 16.154C29.3203 19.7728 28.7218 23.3794 28.7218 28.9489C28.7218 29.2428 28.2436 29.1548 32.8516 29.1548C33.4015 29.1556 33.9291 28.9381 34.3187 28.5501C34.7083 28.1622 34.9279 27.6354 34.9292 27.0857V19.7075C34.9241 18.4832 34.4336 17.311 33.5652 16.4479C32.6967 15.5849 31.5213 15.1014 30.2969 15.1037L30.2974 15.1042Z" fill="#2062AF"/>
</svg>
