<svg width="44" height="32" viewBox="0 0 44 32" fill="none" xmlns="http://www.w3.org/2000/svg">
<path d="M24.9494 17.6814C24.9493 18.4712 24.6753 19.2365 24.1741 19.847C23.6729 20.4574 22.9755 20.8752 22.2007 21.0292C21.426 21.1832 20.6217 21.0638 19.9251 20.6914C19.2285 20.319 18.6826 19.7167 18.3804 18.987C18.0782 18.2573 18.0383 17.4454 18.2677 16.6896C18.4971 15.9338 18.9815 15.281 19.6384 14.8422C20.2952 14.4035 21.0839 14.2061 21.87 14.2836C22.6562 14.3611 23.3911 14.7087 23.9496 15.2672C24.5898 15.9075 24.9495 16.7759 24.9494 17.6814Z" fill="#2062AF"/>
<path d="M22.4689 21.901C20.7526 21.7578 19.2609 21.901 17.9742 22.9634C15.8207 24.6875 16.2351 27.0106 16.2351 29.8498C16.2357 30.2142 16.3807 30.5635 16.6384 30.8211C16.8961 31.0788 17.2455 31.2238 17.6099 31.2243C25.895 31.2243 26.2249 31.4915 26.7177 30.4038C26.8786 30.036 26.8346 30.1508 26.8346 26.6337C26.8346 23.8386 24.4139 21.9 22.4704 21.9L22.4689 21.901Z" fill="#2062AF"/>
<path d="M22.1424 1.31377L23.1012 4.26322H26.2029C26.3243 4.26319 26.4426 4.30158 26.5408 4.37291C26.639 4.44424 26.7122 4.54482 26.7497 4.66025C26.7872 4.77567 26.7872 4.90003 26.7497 5.01547C26.7122 5.1309 26.6391 5.2315 26.5409 5.30285L24.0312 7.12412L24.99 10.0736C25.0275 10.189 25.0275 10.3133 24.99 10.4287C24.9525 10.5441 24.8794 10.6447 24.7812 10.716C24.683 10.7873 24.5648 10.8257 24.4434 10.8257C24.322 10.8258 24.2038 10.7874 24.1056 10.7161L21.5959 8.8948L19.0862 10.7161C18.988 10.7874 18.8698 10.8258 18.7484 10.8257C18.627 10.8257 18.5088 10.7873 18.4106 10.716C18.3124 10.6447 18.2393 10.5441 18.2018 10.4287C18.1642 10.3133 18.1643 10.189 18.2018 10.0736L19.1606 7.12412L16.6509 5.30285C16.5528 5.2314 16.4798 5.13076 16.4423 5.01533C16.4049 4.8999 16.405 4.77558 16.4425 4.66017C16.48 4.54476 16.553 4.44418 16.6512 4.37279C16.7493 4.3014 16.8675 4.26286 16.9889 4.26271H20.0906L21.0494 1.31377C21.0869 1.1983 21.16 1.09767 21.2583 1.02631C21.3565 0.954938 21.4748 0.916504 21.5962 0.916504C21.7176 0.916504 21.8359 0.954938 21.9341 1.02631C22.0323 1.09767 22.1054 1.1983 22.1429 1.31377H22.1424Z" fill="#2062AF"/>
<path d="M10.5856 6.70327L11.3445 9.04004H13.8021C13.8983 9.04006 13.992 9.07051 14.0697 9.12703C14.1475 9.18354 14.2054 9.26321 14.2351 9.35464C14.2649 9.44607 14.2649 9.54457 14.2352 9.636C14.2055 9.72744 14.1476 9.80712 14.0698 9.86365L12.0818 11.307L12.8407 13.6433C12.8704 13.7347 12.8704 13.8332 12.8407 13.9246C12.8109 14.016 12.753 14.0957 12.6752 14.1522C12.5974 14.2087 12.5037 14.2391 12.4076 14.2391C12.3114 14.2391 12.2177 14.2087 12.1399 14.1522L10.1519 12.7083L8.16388 14.1522C8.08608 14.2087 7.9924 14.2391 7.89624 14.2391C7.80009 14.2391 7.70641 14.2087 7.62861 14.1522C7.55081 14.0957 7.49287 14.016 7.46314 13.9246C7.43341 13.8332 7.43339 13.7347 7.46308 13.6433L8.22206 11.307L6.23402 9.86365C6.15624 9.80712 6.09837 9.72744 6.06867 9.636C6.03897 9.54457 6.03895 9.44607 6.06867 9.35464C6.09838 9.26321 6.15629 9.18354 6.23408 9.12703C6.31186 9.07051 6.40553 9.04006 6.50168 9.04004H8.95878L9.71777 6.70327C9.7471 6.61124 9.80497 6.53093 9.88296 6.47394C9.96096 6.41695 10.055 6.38623 10.1516 6.38623C10.2483 6.38623 10.3424 6.41695 10.4204 6.47394C10.4984 6.53093 10.5562 6.61124 10.5856 6.70327Z" fill="#2062AF"/>
<path d="M4.59477 16.327L5.35375 18.6638H7.81134C7.90754 18.6637 8.00129 18.694 8.07916 18.7505C8.15703 18.807 8.21501 18.8866 8.24479 18.9781C8.27457 19.0696 8.2746 19.1681 8.24491 19.2596C8.21522 19.3511 8.15731 19.4308 8.0795 19.4874L6.09149 20.9307L6.85047 23.267C6.88002 23.3584 6.8799 23.4567 6.85017 23.548C6.82043 23.6394 6.7626 23.7189 6.68491 23.7754C6.60722 23.8319 6.51369 23.8623 6.41765 23.8624C6.3216 23.8625 6.22797 23.8323 6.15017 23.776L4.16212 22.3326L2.17461 23.7764C2.09681 23.833 2.00313 23.8634 1.90697 23.8634C1.81082 23.8634 1.71714 23.833 1.63934 23.7765C1.56154 23.72 1.50363 23.6403 1.4739 23.5489C1.44416 23.4574 1.44412 23.359 1.47381 23.2675L2.23279 20.9307L0.244748 19.4874C0.166935 19.4308 0.109058 19.3511 0.0793681 19.2596C0.0496778 19.1681 0.0497128 19.0696 0.0794916 18.9781C0.10927 18.8866 0.167251 18.807 0.245118 18.7505C0.322985 18.694 0.41674 18.6637 0.512937 18.6638H2.96698L3.72596 16.3274C3.75555 16.2358 3.81344 16.1559 3.89131 16.0992C3.96918 16.0425 4.06302 16.012 4.15935 16.012C4.25567 16.012 4.34951 16.0425 4.42738 16.0992C4.50525 16.1559 4.56314 16.2358 4.59273 16.3274L4.59477 16.327Z" fill="#2062AF"/>
<path d="M39.395 16.327L40.154 18.6638H42.6116C42.7078 18.6637 42.8016 18.6941 42.8794 18.7505C42.9573 18.807 43.0152 18.8867 43.045 18.9782C43.0748 19.0696 43.0748 19.1682 43.0451 19.2596C43.0155 19.3511 42.9575 19.4308 42.8797 19.4874L40.8917 20.9308L41.6507 23.267C41.6803 23.3584 41.6801 23.4568 41.6504 23.5481C41.6207 23.6394 41.5629 23.7189 41.4852 23.7754C41.4075 23.8319 41.314 23.8623 41.2179 23.8624C41.1219 23.8625 41.0282 23.8323 40.9504 23.776L38.9624 22.3321L36.9749 23.7765C36.8971 23.833 36.8034 23.8634 36.7073 23.8634C36.6111 23.8634 36.5174 23.833 36.4396 23.7765C36.3618 23.72 36.3039 23.6403 36.2742 23.5489C36.2444 23.4575 36.2444 23.359 36.2741 23.2675L37.0331 20.9308L35.045 19.4874C34.9672 19.4308 34.9094 19.3511 34.8797 19.2596C34.85 19.1682 34.85 19.0696 34.8798 18.9782C34.9096 18.8867 34.9675 18.807 35.0454 18.7505C35.1232 18.6941 35.217 18.6637 35.3132 18.6638H37.7703L38.5293 16.3275C38.5588 16.2357 38.6166 16.1555 38.6945 16.0987C38.7725 16.0419 38.8664 16.0112 38.9629 16.0112C39.0594 16.0112 39.1533 16.0419 39.2313 16.0987C39.3092 16.1555 39.3671 16.2357 39.3966 16.3275L39.395 16.327Z" fill="#2062AF"/>
</svg>
