<svg width="33" height="32" viewBox="0 0 33 32" fill="none" xmlns="http://www.w3.org/2000/svg">
<path d="M32.3368 21.7071C32.1626 21.5274 31.9535 21.3853 31.7222 21.2896C31.491 21.1938 31.2426 21.1466 30.9923 21.1506H21.8208L19.133 23.839C18.4177 24.5477 17.4514 24.9453 16.4444 24.9453C15.4374 24.9453 14.4711 24.5477 13.7558 23.839L11.0883 21.1506H1.89797C1.6483 21.1497 1.40092 21.1982 1.17009 21.2934C0.939263 21.3885 0.729563 21.5285 0.553108 21.7051C0.376652 21.8817 0.236922 22.0915 0.141992 22.3224C0.0470616 22.5533 -0.00118239 22.8007 2.20061e-05 23.0503V29.3741C-0.0010508 29.6236 0.0473109 29.8707 0.142331 30.1014C0.237352 30.332 0.377156 30.5416 0.553633 30.7179C0.730109 30.8942 0.939776 31.0338 1.17052 31.1286C1.40127 31.2234 1.6485 31.2716 1.89797 31.2703H30.9923C31.2417 31.2714 31.4888 31.2231 31.7193 31.1282C31.9499 31.0333 32.1594 30.8937 32.3357 30.7175C32.5121 30.5413 32.6518 30.3319 32.7468 30.1014C32.8418 29.8709 32.8902 29.624 32.8893 29.3747V23.0508C32.8938 22.8011 32.847 22.553 32.7519 22.322C32.6568 22.0909 32.5158 21.8814 32.3368 21.7071ZM24.9245 28.3659C24.7192 28.5655 24.4511 28.688 24.1657 28.7125C23.8803 28.7371 23.5952 28.6622 23.3588 28.5006C23.1223 28.339 22.9491 28.1006 22.8684 27.8258C22.7877 27.551 22.8045 27.2568 22.916 26.993C23.0275 26.7292 23.2268 26.5121 23.4802 26.3785C23.7335 26.2449 24.0253 26.203 24.306 26.2599C24.5867 26.3168 24.839 26.469 25.0203 26.6908C25.2016 26.9125 25.3006 27.1901 25.3005 27.4765C25.3017 27.6425 25.269 27.807 25.2043 27.96C25.1397 28.1129 25.0445 28.2511 24.9245 28.3659ZM29.9844 28.3659C29.7791 28.5658 29.511 28.6885 29.2255 28.7133C28.94 28.738 28.6547 28.6633 28.418 28.5017C28.1814 28.3402 28.0079 28.1017 27.927 27.8269C27.8461 27.552 27.8628 27.2576 27.9742 26.9937C28.0856 26.7297 28.2849 26.5124 28.5384 26.3786C28.7918 26.2448 29.0836 26.2027 29.3645 26.2596C29.6454 26.3164 29.8979 26.4687 30.0794 26.6905C30.2608 26.9123 30.3599 27.19 30.3598 27.4765C30.3612 27.6425 30.3286 27.807 30.264 27.96C30.1995 28.1129 30.1043 28.2511 29.9844 28.3659Z" fill="#2062AF"/>
<path d="M15.556 22.0421C15.6715 22.161 15.8097 22.2555 15.9624 22.32C16.1151 22.3845 16.2792 22.4178 16.445 22.4178C16.6108 22.4178 16.7749 22.3845 16.9276 22.32C17.0803 22.2555 17.2185 22.161 17.334 22.0421L26.1888 13.1888C26.3835 13.0227 26.5168 12.7961 26.5671 12.5452C26.6173 12.2943 26.5818 12.0338 26.4661 11.8056C26.3793 11.5701 26.2197 11.3683 26.0104 11.2297C25.8011 11.091 25.5531 11.0227 25.3023 11.0346H20.2424V2.18127C20.238 1.84722 20.1033 1.5281 19.867 1.29187C19.6308 1.05564 19.3116 0.920957 18.9775 0.916504H13.9176C13.5835 0.920957 13.2643 1.05564 13.028 1.29187C12.7918 1.5281 12.6571 1.84722 12.6526 2.18127V11.0346H7.59273C7.34196 11.0227 7.09392 11.091 6.88464 11.2297C6.67536 11.3683 6.51573 11.5701 6.42896 11.8056C6.31302 12.0337 6.27715 12.2941 6.32717 12.545C6.37719 12.7958 6.51018 13.0226 6.70472 13.1888L15.556 22.0421Z" fill="#2062AF"/>
</svg>
