<svg width="74" height="59" viewBox="0 0 74 59" fill="none" xmlns="http://www.w3.org/2000/svg">
<g clip-path="url(#clip0_86_1765)">
<path opacity="0.1" d="M23.4463 49.5186C20.1003 47.0884 -1.84145 30.6013 0.796708 14.2671C1.69754 8.73718 5.73071 1.31998 11.9079 0.945694C18.2472 0.558229 23.2661 7.79883 32.241 6.87893C34.8148 6.61535 34.6913 5.99066 37.3397 5.50303C45.1976 4.0586 54.8931 7.95698 61.1037 12.8991C70.7324 20.5588 76.6444 34.418 71.4942 45.7178C65.7932 58.2274 49.9488 60.112 39.391 57.7002C32.4984 56.1266 27.8346 52.7211 23.4463 49.5186Z" fill="#2662AD"/>
<path d="M20.0623 37.6812H17.2311C16.902 37.6812 16.5865 37.815 16.3538 38.0533C16.1212 38.2915 15.9905 38.6147 15.9905 38.9516V48.9018C15.9905 49.2388 16.1212 49.5619 16.3538 49.8002C16.5865 50.0385 16.902 50.1723 17.2311 50.1723H20.0623V37.6812Z" fill="#2062AF"/>
<path d="M56.7288 37.594C55.6101 36.45 54.0938 35.8073 52.5128 35.8073C50.9319 35.8073 49.4156 36.45 48.2969 37.594L43.0515 42.9579C42.4367 43.5867 41.604 43.9411 40.7351 43.9437H33.3302C33.0046 43.9499 32.6892 43.8273 32.4496 43.6015C32.2099 43.3757 32.0644 43.064 32.0433 42.7313C32.0353 42.5646 32.0595 42.3979 32.1144 42.2408C32.1694 42.0837 32.254 41.9392 32.3635 41.8156C32.4729 41.692 32.6051 41.5917 32.7524 41.5204C32.8998 41.4491 33.0594 41.4083 33.2221 41.4002H40.8097C41.5448 41.4022 42.2572 41.1392 42.8219 40.6573C43.3867 40.1753 43.7677 39.5052 43.8983 38.7643C43.9578 38.4073 43.9879 38.0458 43.9884 37.6837C43.9884 37.5165 43.9562 37.3509 43.8937 37.1965C43.8313 37.042 43.7397 36.9017 43.6243 36.7834C43.5088 36.6652 43.3718 36.5714 43.221 36.5075C43.0701 36.4435 42.9085 36.4106 42.7452 36.4106H38.6271C37.2784 36.4106 35.9838 35.7859 34.6145 35.1216C33.1758 34.4258 31.6907 33.7062 29.9508 33.5902C28.4246 33.4866 26.8924 33.657 25.4235 34.0937C24.6477 34.3261 23.9586 34.7928 23.4461 35.4329C22.9336 36.0729 22.6217 36.8565 22.5511 37.681H22.5356V50.1722H43.8983C44.6212 50.1738 45.3372 50.0288 46.0052 49.7456C46.6731 49.4624 47.2797 49.0466 47.7899 48.5222L56.7133 39.3811C56.829 39.2631 56.9208 39.1228 56.9835 38.9683C57.0462 38.8139 57.0784 38.6483 57.0784 38.481C57.0784 38.3137 57.0462 38.1481 56.9835 37.9936C56.9208 37.8392 56.829 37.6989 56.7133 37.5809L56.7288 37.594Z" fill="#2062AF"/>
<path d="M39.9193 6.79712C32.8105 6.79712 27.0271 12.7673 27.0271 20.1054C27.0271 27.4435 32.8105 33.4137 39.9193 33.4137C47.0282 33.4137 52.8116 27.4435 52.8116 20.1054C52.8116 12.7673 47.0282 6.79712 39.9193 6.79712ZM44.1841 18.5661C44.1859 18.6054 44.1799 18.6447 44.1667 18.6817C44.1535 18.7187 44.1333 18.7526 44.1072 18.7815C44.0811 18.8104 44.0497 18.8338 44.0147 18.8502C43.9798 18.8666 43.942 18.8757 43.9036 18.8771H42.2795C42.1591 19.7649 41.7228 20.5758 41.0544 21.1544C40.304 21.7712 39.3906 22.1439 38.4317 22.2246C39.4904 23.3756 40.9489 25.1134 42.8071 27.4382C42.8491 27.4806 42.8755 27.5365 42.8821 27.5965C42.8886 27.6564 42.8749 27.7169 42.8432 27.7677C42.8215 27.8233 42.7831 27.8703 42.7336 27.902C42.6841 27.9338 42.626 27.9486 42.5678 27.9443H40.7146C40.6678 27.9448 40.6215 27.9332 40.5802 27.9106C40.5388 27.888 40.5036 27.8552 40.4778 27.8152C38.5355 25.4429 36.956 23.5979 35.7395 22.2799C35.7115 22.2524 35.6896 22.2192 35.6749 22.1824C35.6603 22.1456 35.6534 22.1061 35.6545 22.0664V20.8223C35.6558 20.7403 35.6883 20.6619 35.7449 20.6039C35.8016 20.5459 35.8781 20.5127 35.9582 20.5113H37.0212C37.7172 20.5427 38.41 20.3988 39.0391 20.0922C39.2768 19.9724 39.4867 19.8021 39.655 19.5925C39.8232 19.383 39.9458 19.1391 40.0146 18.8771H35.9582C35.8808 18.8799 35.8055 18.8513 35.7486 18.7975C35.6917 18.7437 35.6579 18.669 35.6545 18.5898V17.5724C35.6531 17.5329 35.6594 17.4935 35.6729 17.4565C35.6864 17.4195 35.7068 17.3856 35.7331 17.3567C35.7594 17.3279 35.791 17.3046 35.8261 17.2882C35.8612 17.2718 35.8991 17.2627 35.9376 17.2613H39.8807C39.5204 16.5286 38.6719 16.1622 37.3352 16.1622H35.9582C35.8781 16.1608 35.8016 16.1276 35.7449 16.0696C35.6883 16.0116 35.6558 15.9332 35.6545 15.8512V14.557C35.6517 14.4777 35.6797 14.4005 35.7322 14.3423C35.7848 14.284 35.8577 14.2494 35.9351 14.246H43.8598C43.9375 14.2431 44.0131 14.2716 44.0704 14.3254C44.1277 14.3791 44.1621 14.4538 44.1661 14.5333V15.5507C44.1682 15.6302 44.1397 15.7074 44.0867 15.7656C44.0338 15.8238 43.9606 15.8583 43.883 15.8617H41.6464C41.9537 16.277 42.1625 16.7597 42.2563 17.2719H43.8804C43.9576 17.2697 44.0326 17.2985 44.0894 17.3522C44.1461 17.4059 44.1801 17.4802 44.1841 17.5592V18.5766V18.5661Z" fill="#FAA61A"/>
</g>
<defs>
<clipPath id="clip0_86_1765">
<rect width="72.8054" height="57.677" fill="white" transform="translate(0.583496 0.929932)"/>
</clipPath>
</defs>
</svg>
