<svg width="82" height="65" viewBox="0 0 82 65" fill="none" xmlns="http://www.w3.org/2000/svg">
<path opacity="0.1" d="M51.1488 8.71821C54.4074 11.0494 75.943 26.8597 73.3381 42.5134C72.4572 47.8172 68.5095 54.9192 62.4467 55.2753C56.2298 55.6416 51.3103 48.7088 42.5063 49.5801C39.9822 49.8327 40.1008 50.4312 37.5035 50.8959C29.7949 52.2775 20.2866 48.537 14.196 43.7964C4.76595 36.452 -1.02685 23.1672 4.02892 12.3425C9.62484 0.355913 25.1682 -1.44485 35.5221 0.873664C42.2665 2.38145 46.8351 5.6496 51.1488 8.71821Z" fill="#2662AD"/>
<path d="M47.7742 4.8187C48.4999 4.97637 49.1733 5.31719 49.7303 5.80874C50.0985 6.14217 50.3933 6.5485 50.5962 7.00196C50.7992 7.45542 50.9057 7.94612 50.9091 8.44295C50.9091 17.6513 50.9091 26.8597 50.9091 36.0681V36.3434H40.8379C40.8834 36.2474 40.9187 36.154 40.9692 36.0706C41.5411 35.1243 41.8383 34.0372 41.8274 32.9313V20.4573C41.8403 19.9064 41.7383 19.359 41.528 18.8497C41.3176 18.3405 41.0035 17.8808 40.6057 17.4998C38.7547 15.6713 36.9155 13.8326 35.088 11.9839C34.7022 11.5808 34.2362 11.2632 33.7202 11.0513C33.2042 10.8395 32.6495 10.7382 32.0919 10.7539C30.002 10.7539 27.9095 10.7539 25.8195 10.7539H25.2542C25.3223 9.65272 25.2693 8.55155 25.4864 7.511C25.7665 6.17495 26.7156 5.3415 28.0281 4.9475C28.172 4.90457 28.3108 4.85405 28.4522 4.80859L47.7742 4.8187Z" fill="#2062AF"/>
<path d="M31.0974 13.2468V15.1788C31.0974 16.8053 31.0974 18.4301 31.0974 20.0533C31.0974 21.013 31.6022 21.503 32.5462 21.5055H39.3613V21.9727C39.3613 25.6349 39.3613 29.297 39.3613 32.9592C39.3613 34.9493 37.9427 36.3687 35.9588 36.3687H23.7699C21.7658 36.3687 20.3599 34.9392 20.3599 32.9263C20.3599 27.5299 20.3599 22.1327 20.3599 16.7346C20.3599 14.6308 21.7456 13.2417 23.8431 13.2417L31.0974 13.2468ZM29.8126 26.4658H32.9879C33.8133 26.4658 34.3938 25.9455 34.3964 25.2283C34.3989 24.511 33.8158 23.9932 32.9905 23.9932C30.9022 23.9932 28.8131 23.9932 26.7231 23.9932C25.9003 23.9932 25.3172 24.4984 25.3147 25.2308C25.3121 25.9632 25.8977 26.4709 26.7206 26.4734L29.8126 26.4658ZM29.8126 31.4211C30.8854 31.4211 31.9581 31.4514 33.0283 31.4034C33.3903 31.3705 33.7354 31.2346 34.0228 31.0119C34.2067 30.8518 34.3315 30.6346 34.3773 30.3951C34.423 30.1556 34.3871 29.9077 34.2752 29.691C34.1727 29.4549 34.0005 29.2558 33.7817 29.1204C33.5629 28.985 33.3079 28.9197 33.051 28.9333H26.6676C25.8876 28.9333 25.3046 29.4864 25.3147 30.1961C25.3248 30.9058 25.8977 31.4185 26.6928 31.4236C27.7378 31.4236 28.7828 31.4236 29.8252 31.4236L29.8126 31.4211Z" fill="#FAA61A"/>
<path d="M25.3147 38.8638H50.9116V39.2628C50.9116 40.6393 50.9116 42.0157 50.9116 43.3922C50.9197 44.3711 50.5389 45.3131 49.8531 46.0112C49.1673 46.7093 48.2324 47.1063 47.2542 47.1149H29.0352C28.0551 47.1203 27.1129 46.7364 26.4154 46.0475C25.7179 45.3585 25.322 44.4208 25.3147 43.4402V43.3972C25.3147 42.0208 25.3147 40.6443 25.3147 39.2679C25.3147 39.1466 25.3147 39.0229 25.3147 38.8638ZM38.127 41.748C37.883 41.7456 37.6436 41.8154 37.4392 41.9488C37.2347 42.0822 37.0743 42.2731 36.9781 42.4975C36.8818 42.722 36.8541 42.9699 36.8984 43.21C36.9427 43.4502 37.057 43.6719 37.2269 43.8472C37.3968 44.0225 37.6148 44.1435 37.8534 44.1951C38.0919 44.2467 38.3404 44.2265 38.5675 44.1371C38.7946 44.0477 38.9902 43.893 39.1297 43.6926C39.2691 43.4922 39.3462 43.255 39.3512 43.0108C39.3476 42.6835 39.2186 42.37 38.9909 42.1351C38.7631 41.9001 38.4539 41.7616 38.127 41.748Z" fill="#2062AF"/>
<path d="M38.5057 19.0127H33.6064V14.1055L38.5057 19.0127Z" fill="#FAA61A"/>
</svg>
