<svg width="73" height="59" viewBox="0 0 73 59" fill="none" xmlns="http://www.w3.org/2000/svg">
<g clip-path="url(#clip0_86_1781)">
<path opacity="0.1" d="M22.8628 49.5186C19.5168 47.0884 -2.42495 30.6013 0.213212 14.2671C1.11405 8.73718 5.14721 1.31998 11.3244 0.945694C17.6637 0.558229 22.6826 7.79883 31.6575 6.87893C34.2313 6.61535 34.1078 5.99066 36.7562 5.50303C44.6141 4.0586 54.3096 7.95698 60.5202 12.8991C70.1489 20.5588 76.0609 34.418 70.9107 45.7178C65.2097 58.2274 49.3653 60.112 38.8075 57.7002C31.9149 56.1266 27.2511 52.7211 22.8628 49.5186Z" fill="#2662AD"/>
<path d="M39.3358 6.79712C32.227 6.79712 26.4436 12.7673 26.4436 20.1054C26.4436 27.4435 32.227 33.4137 39.3358 33.4137C46.4447 33.4137 52.2281 27.4435 52.2281 20.1054C52.2281 12.7673 46.4447 6.79712 39.3358 6.79712ZM43.6006 18.5661C43.6024 18.6054 43.5965 18.6447 43.5832 18.6817C43.57 18.7187 43.5498 18.7526 43.5237 18.7815C43.4976 18.8104 43.4662 18.8338 43.4313 18.8502C43.3963 18.8666 43.3585 18.8757 43.3201 18.8771H41.696C41.5756 19.7649 41.1393 20.5758 40.4709 21.1544C39.7205 21.7712 38.8071 22.1439 37.8482 22.2246C38.9069 23.3756 40.3654 25.1134 42.2236 27.4382C42.2656 27.4806 42.292 27.5365 42.2986 27.5965C42.3051 27.6564 42.2914 27.7169 42.2597 27.7677C42.238 27.8233 42.1996 27.8703 42.1501 27.902C42.1006 27.9338 42.0425 27.9486 41.9843 27.9443H40.1311C40.0843 27.9448 40.0381 27.9332 39.9967 27.9106C39.9553 27.888 39.9201 27.8552 39.8943 27.8152C37.952 25.4429 36.3725 23.5979 35.156 22.2799C35.128 22.2524 35.1061 22.2192 35.0914 22.1824C35.0768 22.1456 35.0699 22.1061 35.071 22.0664V20.8223C35.0723 20.7403 35.1048 20.6619 35.1614 20.6039C35.2181 20.5459 35.2946 20.5127 35.3747 20.5113H36.4377C37.1337 20.5427 37.8265 20.3988 38.4556 20.0922C38.6933 19.9724 38.9032 19.8021 39.0715 19.5925C39.2397 19.383 39.3623 19.1391 39.4311 18.8771H35.3747C35.2973 18.8799 35.222 18.8513 35.1651 18.7975C35.1082 18.7437 35.0744 18.669 35.071 18.5898V17.5724C35.0696 17.5329 35.0759 17.4935 35.0894 17.4565C35.1029 17.4195 35.1233 17.3856 35.1496 17.3567C35.1759 17.3279 35.2075 17.3046 35.2426 17.2882C35.2777 17.2718 35.3156 17.2627 35.3541 17.2613H39.2972C38.9369 16.5286 38.0884 16.1622 36.7517 16.1622H35.3747C35.2946 16.1608 35.2181 16.1276 35.1614 16.0696C35.1048 16.0116 35.0723 15.9332 35.071 15.8512V14.557C35.0682 14.4777 35.0962 14.4005 35.1487 14.3423C35.2013 14.284 35.2742 14.2494 35.3516 14.246H43.2763C43.354 14.2431 43.4296 14.2716 43.4869 14.3254C43.5443 14.3791 43.5786 14.4538 43.5826 14.5333V15.5507C43.5847 15.6302 43.5562 15.7074 43.5032 15.7656C43.4503 15.8238 43.3771 15.8583 43.2995 15.8617H41.0629C41.3702 16.277 41.579 16.7597 41.6729 17.2719H43.2969C43.3741 17.2697 43.4491 17.2985 43.5059 17.3522C43.5626 17.4059 43.5966 17.4802 43.6006 17.5592V18.5766V18.5661Z" fill="#FAA61A"/>
<path d="M5.25 32.75L21 20.5L36.75 32.75V52C36.75 52.9283 36.3813 53.8185 35.7249 54.4749C35.0685 55.1312 34.1783 55.5 33.25 55.5H8.75C7.82174 55.5 6.9315 55.1312 6.27513 54.4749C5.61875 53.8185 5.25 52.9283 5.25 52V32.75Z" fill="#2062AF"/>
<path d="M15.75 55.5V38H26.25V55.5" fill="#FAA61A"/>
</g>
<defs>
<clipPath id="clip0_86_1781">
<rect width="72.8054" height="57.677" fill="white" transform="translate(0 0.929932)"/>
</clipPath>
</defs>
</svg>
