<svg width="82" height="64" viewBox="0 0 82 64" fill="none" xmlns="http://www.w3.org/2000/svg">
<path opacity="0.1" d="M25.6228 10.7871C21.874 13.4484 -2.70983 31.4832 0.245997 49.3507C1.24665 55.4056 5.75393 63.5133 12.6778 63.9227C19.7804 64.3437 25.4037 56.4263 35.4593 57.4325C38.343 57.7208 38.2017 58.4042 41.1719 58.9376C49.976 60.5176 60.839 56.2533 67.7974 50.8471C78.5855 42.4684 85.2065 27.3053 79.4391 14.9477C73.0574 1.2637 55.3022 -0.797838 43.476 1.84035C35.7649 3.56165 30.5396 7.28683 25.6228 10.7871Z" fill="#2662AD"/>
<path d="M19.1087 54.4774H58.437C59.6338 54.4758 60.7811 54 61.6276 53.1542C62.4741 52.3084 62.9507 51.1616 62.953 49.9651V28.0984C61.0266 29.3946 58.7978 30.171 56.4829 30.3522C54.168 30.5335 51.8455 30.1135 49.7408 29.1329C47.636 28.1524 45.8205 26.6446 44.4702 24.7559C43.12 22.8671 42.2809 20.6615 42.0344 18.353H19.1087C17.9115 18.3546 16.7637 18.8307 15.9171 19.6772C15.0706 20.5236 14.5943 21.6712 14.5928 22.8682V49.9535C14.592 50.5471 14.7082 51.135 14.9348 51.6836C15.1614 52.2323 15.4939 52.7309 15.9132 53.151C16.3326 53.5711 16.8307 53.9045 17.379 54.1321C17.9273 54.3596 18.515 54.477 19.1087 54.4774ZM55.4264 33.4007C55.7242 33.4007 56.0152 33.489 56.2627 33.6544C56.5103 33.8198 56.7032 34.0548 56.8172 34.3298C56.9311 34.6049 56.9609 34.9075 56.9028 35.1994C56.8447 35.4914 56.7014 35.7596 56.4908 35.97C56.2803 36.1805 56.0121 36.3239 55.7201 36.3819C55.4281 36.44 55.1254 36.4102 54.8504 36.2963C54.5753 36.1824 54.3402 35.9895 54.1748 35.742C54.0094 35.4945 53.9211 35.2035 53.9211 34.9058C53.9211 34.5066 54.0797 34.1238 54.362 33.8416C54.6443 33.5593 55.0272 33.4007 55.4264 33.4007ZM49.4081 33.4007C49.7058 33.4007 49.9968 33.489 50.2444 33.6544C50.4919 33.8198 50.6849 34.0548 50.7988 34.3298C50.9127 34.6049 50.9426 34.9075 50.8845 35.1994C50.8264 35.4914 50.683 35.7596 50.4725 35.97C50.262 36.1805 49.9938 36.3239 49.7018 36.3819C49.4098 36.44 49.1071 36.4102 48.832 36.2963C48.557 36.1824 48.3219 35.9895 48.1565 35.742C47.9911 35.4945 47.9028 35.2035 47.9028 34.9058C47.9028 34.5066 48.0614 34.1238 48.3437 33.8416C48.626 33.5593 49.0088 33.4007 49.4081 33.4007ZM43.3868 33.4007C43.6846 33.4007 43.9756 33.489 44.2232 33.6544C44.4707 33.8198 44.6636 34.0548 44.7776 34.3298C44.8915 34.6049 44.9213 34.9075 44.8632 35.1994C44.8051 35.4914 44.6618 35.7596 44.4513 35.97C44.2407 36.1805 43.9725 36.3239 43.6805 36.3819C43.3885 36.44 43.0858 36.4102 42.8108 36.2963C42.5357 36.1824 42.3006 35.9895 42.1352 35.742C41.9698 35.4945 41.8815 35.2035 41.8815 34.9058C41.8815 34.5066 42.0401 34.1238 42.3224 33.8416C42.6047 33.5593 42.9876 33.4007 43.3868 33.4007ZM43.3868 39.4181H55.4264C55.8257 39.4181 56.2085 39.5767 56.4908 39.8589C56.7731 40.1412 56.9317 40.524 56.9317 40.9232C56.9317 41.3223 56.7731 41.7051 56.4908 41.9874C56.2085 42.2697 55.8257 42.4282 55.4264 42.4282H43.3868C42.9994 42.4113 42.6334 42.2454 42.3653 41.9653C42.0971 41.6852 41.9474 41.3124 41.9474 40.9246C41.9474 40.5368 42.0971 40.164 42.3653 39.8839C42.6334 39.6038 42.9994 39.438 43.3868 39.421V39.4181ZM43.3868 45.4383H55.4264C55.8257 45.4383 56.2085 45.5969 56.4908 45.8792C56.7731 46.1614 56.9317 46.5442 56.9317 46.9434C56.9317 47.3426 56.7731 47.7254 56.4908 48.0076C56.2085 48.2899 55.8257 48.4485 55.4264 48.4485H43.3868C42.9876 48.4485 42.6047 48.2899 42.3224 48.0076C42.0401 47.7254 41.8815 47.3426 41.8815 46.9434C41.8815 46.5442 42.0401 46.1614 42.3224 45.8792C42.6047 45.5969 42.9876 45.4383 43.3868 45.4383ZM20.6054 43.9333C20.6078 42.7 20.9134 41.4862 21.4952 40.3987C22.077 39.3112 22.9172 38.3834 23.9418 37.6968C23.0893 36.8653 22.5025 35.7997 22.2557 34.6347C22.009 33.4697 22.1133 32.2578 22.5555 31.1521C22.9977 30.0464 23.7579 29.0967 24.74 28.423C25.7221 27.7494 26.882 27.382 28.0729 27.3675C29.2638 27.353 30.4323 27.6919 31.4305 28.3414C32.4287 28.9909 33.2119 29.9219 33.6809 31.0164C34.15 32.111 34.2838 33.3201 34.0655 34.4907C33.8472 35.6613 33.2866 36.741 32.4546 37.593L32.3508 37.6968C33.3725 38.3852 34.2094 39.3138 34.7882 40.4012C35.3669 41.4886 35.6697 42.7015 35.67 43.9333V46.9434C35.67 47.3421 35.5118 47.7245 35.2301 48.0066C34.9484 48.2888 34.5663 48.4477 34.1676 48.4485H22.1164C21.7172 48.4485 21.3343 48.2899 21.052 48.0076C20.7697 47.7254 20.6111 47.3426 20.6111 46.9434L20.6054 43.9333Z" fill="#2062AF"/>
<path d="M28.1376 36.4107C28.733 36.4107 29.3151 36.2342 29.8102 35.9034C30.3053 35.5726 30.6912 35.1025 30.919 34.5525C31.1469 34.0024 31.2065 33.3972 31.0903 32.8133C30.9742 32.2294 30.6874 31.693 30.2664 31.272C29.8454 30.8511 29.3089 30.5644 28.7249 30.4482C28.1409 30.3321 27.5356 30.3917 26.9855 30.6195C26.4353 30.8474 25.9651 31.2332 25.6343 31.7282C25.3035 32.2232 25.127 32.8052 25.127 33.4005C25.1285 34.1984 25.4462 34.9632 26.0104 35.5274C26.5747 36.0916 27.3396 36.4092 28.1376 36.4107Z" fill="#FAA61A"/>
<path d="M32.6537 43.9332C32.6537 42.7357 32.1779 41.5872 31.331 40.7405C30.4841 39.8937 29.3355 39.418 28.1378 39.418C26.9401 39.418 25.7914 39.8937 24.9445 40.7405C24.0976 41.5872 23.6218 42.7357 23.6218 43.9332V45.4383H32.6537V43.9332Z" fill="#FAA61A"/>
<path d="M55.3283 6.3269C53.2491 6.34625 51.2221 6.98039 49.5027 8.14942C47.7833 9.31845 46.4484 10.9701 45.6661 12.8963C44.8838 14.8225 44.6891 16.9371 45.1066 18.9737C45.5241 21.0103 46.535 22.8779 48.0121 24.3411C49.4892 25.8043 51.3663 26.7978 53.407 27.1963C55.4478 27.5948 57.5608 27.3806 59.48 26.5806C61.3992 25.7806 63.0386 24.4306 64.1919 22.7007C65.3451 20.9709 65.9605 18.9384 65.9606 16.8595C65.9606 11.041 61.1419 6.3269 55.3283 6.3269ZM61.0064 14.9162L54.9852 20.922C54.8458 21.0619 54.6802 21.1729 54.4979 21.2487C54.3155 21.3245 54.12 21.3635 53.9225 21.3635C53.725 21.3635 53.5295 21.3245 53.3471 21.2487C53.1648 21.1729 52.9992 21.0619 52.8598 20.922L49.8492 17.9119C49.7038 17.7734 49.5876 17.6073 49.5074 17.4233C49.4272 17.2393 49.3846 17.0411 49.3822 16.8403C49.3797 16.6396 49.4175 16.4404 49.4932 16.2545C49.5689 16.0686 49.681 15.8997 49.823 15.7578C49.9649 15.6158 50.1339 15.5037 50.3198 15.428C50.5058 15.3523 50.705 15.3146 50.9057 15.317C51.1065 15.3195 51.3047 15.3621 51.4888 15.4423C51.6728 15.5225 51.839 15.6387 51.9774 15.784L53.9326 17.7302L58.8897 12.7768C59.1742 12.5059 59.5534 12.3569 59.9462 12.3617C60.3391 12.3665 60.7145 12.5246 60.9923 12.8024C61.2701 13.0802 61.4283 13.4555 61.4331 13.8483C61.4379 14.2411 61.2889 14.6202 61.0179 14.9046L61.0064 14.9162Z" fill="#FAA61A"/>
</svg>
