<svg width="22" height="18" viewBox="0 0 22 18" fill="none" xmlns="http://www.w3.org/2000/svg">
<path d="M22 0.0100542C21.0424 0.685427 19.9821 1.20198 18.86 1.53982C18.2577 0.847436 17.4573 0.356693 16.567 0.133961C15.6767 -0.0887703 14.7395 -0.0327436 13.8821 0.294464C13.0247 0.621671 12.2884 1.20427 11.773 1.96347C11.2575 2.72267 10.9877 3.62183 11 4.53936V5.5392C9.24263 5.58476 7.50127 5.19507 5.93101 4.40482C4.36074 3.61458 3.01032 2.44831 2 1.0099C2 1.0099 -2 10.0085 7 14.0079C4.94053 15.4056 2.48716 16.1065 0 16.0076C9 21.0068 20 16.0076 20 4.50936C19.9991 4.23086 19.9723 3.95304 19.92 3.67949C20.9406 2.67314 21.6608 1.40255 22 0.0100542Z" fill="white"/>
</svg>
